<?xml version="1.0" standalone="no"?>
<!DOCTYPE svg PUBLIC "-//W3C//DTD SVG 20010904//EN"
 "http://www.w3.org/TR/2001/REC-SVG-20010904/DTD/svg10.dtd">
<svg version="1.0" xmlns="http://www.w3.org/2000/svg"
 width="1200.000000pt" height="945.000000pt" viewBox="0 0 1200.000000 945.000000"
 preserveAspectRatio="xMidYMid meet">

<g transform="translate(0.000000,945.000000) scale(0.100000,-0.100000)"
fill="#000000" stroke="none">
<path d="M9723 9063 l-393 -256 0 -1109 0 -1109 28 19 c15 10 192 126 395 256
l367 238 0 1109 c0 610 -1 1109 -2 1108 -2 0 -180 -116 -395 -256z"/>
<path d="M2005 5086 c0 -679 3 -1237 7 -1241 6 -7 255 152 1073 685 242 158
528 344 635 414 107 70 195 131 195 136 0 9 4 7 -1128 742 -422 274 -771 498
-775 498 -4 0 -7 -555 -7 -1234z"/>
</g>
</svg>
